<svg id="Layer_1" data-name="Layer 1" xmlns="http://www.w3.org/2000/svg" xmlns:xlink="http://www.w3.org/1999/xlink" viewBox="0 0 108.89 119.71"><defs><style>.cls-1{fill:url(#linear-gradient);}</style><linearGradient id="linear-gradient" x1="1.07" y1="60.89" x2="109.96" y2="60.89" gradientUnits="userSpaceOnUse"><stop offset="0" stop-color="#a40ee2"/><stop offset="1" stop-color="#c06"/></linearGradient></defs><title>logo-3</title><path class="cls-1" d="M1.4,2.5C.3,5.4,2.1,14.7,5,20.8c4,8.4,9.3,14,19.9,20.9.2.1-1.3,2.1-3.3,4.4-6.7,7.9-7.8,12.7-8,35.9-.2,19.2-.4,20.9-2.8,27.6-1.4,3.9-3.1,8.1-3.7,9.3C5.9,121,6,121,10.2,120.4c7.3-1.1,24.9-7.1,33.3-11.4A104.46,104.46,0,0,0,73.1,85.8c5-5.4,9.9-9.7,14.3-12.2,14.9-8.7,21.8-18.5,22.5-32.3.4-8.8-1-11.7-6.3-12.7-3-.6-4.2-1.7-8-7.6-5-7.7-10-11.8-18.5-15.2C71.8,3.7,70,3.5,45,3.4c-16.1-.1-28.1-.5-30.5-1.2C8.6.5,2.1.7,1.4,2.5Zm87,21.7c1.5,2.4,0,3.4-2.2,1.5A6.75,6.75,0,0,0,82.1,24c-1.3,0-1.9-.4-1.6-1.1C81.5,21.4,87.1,22.3,88.4,24.2Z" transform="translate(-1.07 -1.03)"/></svg>