<?xml version="1.0" encoding="utf-8"?>
<!-- Generator: Adobe Illustrator 21.0.0, SVG Export Plug-In . SVG Version: 6.00 Build 0)  -->
<svg version="1.1" id="Layer_1" xmlns="http://www.w3.org/2000/svg" xmlns:xlink="http://www.w3.org/1999/xlink" x="0px" y="0px"
	 viewBox="0 0 387.3 348.7" style="enable-background:new 0 0 387.3 348.7;" xml:space="preserve">
<style type="text/css">
	.st0{fill:url(#SVGID_1_);}
	.st1{fill:url(#SVGID_2_);}
	.st2{fill:url(#SVGID_3_);}
	.st3{fill:none;}
</style>
<title>logo-5</title>
<g id="Layer_2">
	<g id="Layer_1-2">
		
			<linearGradient id="SVGID_1_" gradientUnits="userSpaceOnUse" x1="451.1962" y1="239.8456" x2="16.8462" y2="94.7157" gradientTransform="matrix(1 0 0 -1 0 350.2083)">
			<stop  offset="0" style="stop-color:#FF0F6B"/>
			<stop  offset="0.16" style="stop-color:#FD1070"/>
			<stop  offset="0.34" style="stop-color:#F7127E"/>
			<stop  offset="0.54" style="stop-color:#ED1696"/>
			<stop  offset="0.75" style="stop-color:#DF1BB7"/>
			<stop  offset="0.97" style="stop-color:#CD21E1"/>
			<stop  offset="1" style="stop-color:#CA22E8"/>
		</linearGradient>
		<path class="st0" d="M173.1,1.6c-1.4,1.2-1.7,4-1.7,12.7c0,9.3-0.3,11.3-1.8,12.7c-1,0.9-8.1,4.7-15.6,8.5l-13.8,6.8H93.9
			c-35.6,0-46.9,0.3-48.1,1.2C43,45.7,0.3,103,0.3,104.6c0,0.8,6.7,15,15,31.4l15,29.9v22.8c0,14.7,0.4,23.5,1.1,24.8
			S56.7,245.6,86,282c48,59.6,53.7,66.3,56.3,66.3c3.4,0,6.2-2.4,6.2-5.3c0-1.1-5.2-22.4-11.4-47.3s-11.4-45.8-11.4-46.4
			c0.4-1.2,1.1-2.3,2.1-3.1c2-2,3.4-2.1,54.1-2.1h52.3l52.5,52.1c54.8,54.3,55.1,54.6,59.5,50.9c1-1,1.5-2.4,1.6-3.8
			c0-1.3-11.4-30.9-25.4-65.6s-25.5-63.7-25.5-64.3c0-1.6,28.2-43.6,30.6-45.6c1.5-1.2,5.2-1.6,16.9-1.6l14.9-0.1l13.9-13.8
			c17-16.9,17-17,7.4-26.5c-5.5-5.4-7.7-8.8-14.1-21.8l-7.7-15.3l-14.4-7.1c-8-3.9-14.9-7.7-15.6-8.4s-1.4-5.4-1.6-10.2
			s-0.8-9.5-1.5-10.2s-2.7-1.4-4.5-1.4c-2.8,0-7.9,4.6-45.4,41.9l-42.3,42.1l-76.9,0.2c-54.2,0.2-77.5,0-79-0.8
			c-3.3-1.6-27.6-25.7-29.3-29c-1.4-2.7-1.1-3.5,5.7-17.2c4-7.8,8-14.5,8.9-14.9s22.2-0.6,47.2-0.6h45.5l22.1-14.5
			c12.1-8,22.7-15.3,23.4-16.2c0.8-1.1,1.2-6,1.2-15.7c0-16.5,0.8-15-13.2-22.1C179.1-0.4,175.7-1,173.1,1.6z"/>
		
			<linearGradient id="SVGID_2_" gradientUnits="userSpaceOnUse" x1="412.4318" y1="190.7038" x2="35.6018" y2="64.7938" gradientTransform="matrix(1 0 0 -1 0 350.2083)">
			<stop  offset="0" style="stop-color:#FF0F6B"/>
			<stop  offset="0.16" style="stop-color:#FD1070"/>
			<stop  offset="0.34" style="stop-color:#F7127E"/>
			<stop  offset="0.54" style="stop-color:#ED1696"/>
			<stop  offset="0.75" style="stop-color:#DF1BB7"/>
			<stop  offset="0.97" style="stop-color:#CD21E1"/>
			<stop  offset="1" style="stop-color:#CA22E8"/>
		</linearGradient>
		<path class="st1" d="M28.4,234.5c-1.8,6.2-24.9,107.3-24.9,109.3c0,3.2,1.5,4.6,5,4.6c2.3,0,6.5-3.8,33.6-30.7
			c16.9-16.8,30.8-31.2,30.8-32.1c0-2-40.6-52.1-42.5-52.4C29.5,233.1,28.6,233.6,28.4,234.5z"/>
		
			<linearGradient id="SVGID_3_" gradientUnits="userSpaceOnUse" x1="482.5596" y1="145.8254" x2="48.6496" y2="0.8455" gradientTransform="matrix(1 0 0 -1 0 350.2083)">
			<stop  offset="0" style="stop-color:#FF0F6B"/>
			<stop  offset="0.16" style="stop-color:#FD1070"/>
			<stop  offset="0.34" style="stop-color:#F7127E"/>
			<stop  offset="0.54" style="stop-color:#ED1696"/>
			<stop  offset="0.75" style="stop-color:#DF1BB7"/>
			<stop  offset="0.97" style="stop-color:#CD21E1"/>
			<stop  offset="1" style="stop-color:#CA22E8"/>
		</linearGradient>
		<path class="st2" d="M201.3,257.8c-2.2,1.8-34,81.4-34,85.1s1.8,5.4,5.7,5.4c2.7,0,7.5-4.2,38.2-34.8c27.8-27.6,35-35.3,35-37.4
			c0-2-2.3-4.8-8.7-11l-8.7-8.5h-12.9C207.1,256.6,202.5,257,201.3,257.8z"/>
		<line class="st3" x1="-51.8" y1="348.3" x2="398.7" y2="348.3"/>
	</g>
</g>
</svg>
