<?xml version="1.0" standalone="no"?>
<!DOCTYPE svg PUBLIC "-//W3C//DTD SVG 20010904//EN"
 "http://www.w3.org/TR/2001/REC-SVG-20010904/DTD/svg10.dtd">
<svg version="1.0" xmlns="http://www.w3.org/2000/svg"
 width="157.000000pt" height="90.000000pt" viewBox="0 0 157.000000 90.000000"
 preserveAspectRatio="xMidYMid meet">

<g transform="translate(0.000000,90.000000) scale(0.100000,-0.100000)"
fill="#000000" stroke="none">
<path d="M1315 871 c-126 -32 -222 -163 -259 -352 l-5 -25 -88 29 c-66 22
-114 31 -193 35 l-104 5 -82 53 c-77 51 -243 135 -291 149 -17 5 -22 1 -27
-23 -4 -16 -19 -35 -34 -44 -31 -18 -96 -137 -90 -164 6 -31 53 -56 124 -64
38 -5 83 -13 101 -20 l32 -12 -152 -152 c-84 -84 -169 -165 -190 -180 -30 -22
-38 -33 -35 -54 3 -24 7 -27 50 -30 66 -4 112 18 312 151 160 106 169 110 182
92 17 -23 18 -80 2 -156 -14 -70 -3 -89 50 -89 99 0 178 160 132 271 -21 51
-82 71 -146 49 -28 -10 -33 -7 -86 45 l-57 54 72 35 c40 20 88 38 108 42 35 6
40 3 125 -83 137 -136 176 -225 150 -344 -10 -44 11 -69 58 -69 44 0 80 30
101 82 15 37 16 63 10 185 -5 95 -4 143 3 143 17 0 105 -73 151 -126 68 -77
94 -136 86 -196 -8 -59 11 -88 57 -88 42 0 68 17 84 55 34 81 9 176 -83 322
-84 134 -113 199 -113 260 0 40 5 58 25 81 49 59 132 50 163 -17 14 -29 23
-37 50 -39 26 -3 34 1 41 20 18 48 -25 124 -86 153 -43 21 -105 27 -148 16z
m107 -31 c44 -12 98 -71 98 -105 0 -34 -23 -31 -37 5 -13 35 -67 70 -106 70
-43 0 -97 -29 -119 -64 -16 -25 -18 -44 -15 -101 4 -77 25 -127 103 -248 82
-126 98 -165 99 -238 0 -78 -21 -112 -64 -107 -25 3 -26 5 -23 60 3 49 -1 66
-29 118 -37 70 -139 178 -205 216 -43 25 -44 28 -38 63 29 175 121 303 239
332 43 10 56 10 97 -1z m-1007 -163 c44 -22 111 -60 149 -84 l70 -45 -53 -19
c-29 -10 -73 -30 -98 -45 l-46 -27 -61 21 c-34 11 -86 23 -117 27 -31 3 -65
12 -75 19 -16 13 -16 20 4 56 5 8 15 29 23 45 8 17 29 39 46 50 18 11 32 28
33 38 0 23 17 18 125 -36z m533 -182 c42 -14 82 -28 88 -32 7 -5 14 -68 18
-160 5 -120 4 -158 -7 -185 -19 -44 -50 -70 -79 -66 -18 2 -22 8 -20 28 2 14
4 52 5 85 2 85 -42 164 -155 279 l-88 89 81 -7 c44 -4 114 -18 157 -31z m-453
-131 c26 -25 45 -47 43 -49 -16 -16 -328 -220 -367 -240 -49 -24 -121 -34
-121 -16 0 4 18 20 39 34 21 14 104 91 183 171 79 81 151 146 160 146 9 0 37
-21 63 -46z m210 -69 c47 -46 30 -160 -33 -218 -41 -39 -78 -35 -74 8 7 69 6
181 -2 197 -6 14 -3 20 15 27 40 16 69 12 94 -14z"/>
<path d="M230 590 c0 -11 7 -20 15 -20 8 0 15 9 15 20 0 11 -7 20 -15 20 -8 0
-15 -9 -15 -20z"/>
</g>
</svg>
