<?xml version="1.0" standalone="no"?>
<!DOCTYPE svg PUBLIC "-//W3C//DTD SVG 20010904//EN"
 "http://www.w3.org/TR/2001/REC-SVG-20010904/DTD/svg10.dtd">
<svg version="1.0" xmlns="http://www.w3.org/2000/svg"
 width="390.000000pt" height="350.000000pt" viewBox="0 0 390.000000 350.000000"
 preserveAspectRatio="xMidYMid meet">

<g transform="translate(0.000000,350.000000) scale(0.100000,-0.100000)"
fill="#000000" stroke="none">
<path d="M1806 3454 c-13 -12 -16 -39 -16 -123 0 -90 -3 -110 -17 -123 -10 -9
-78 -46 -150 -82 l-133 -66 -448 0 c-343 0 -452 -3 -464 -12 -27 -22 -438
-578 -438 -593 0 -8 65 -146 145 -305 l145 -290 0 -221 c0 -143 4 -228 11
-241 6 -12 243 -311 526 -665 463 -578 518 -643 543 -643 33 0 60 23 60 51 0
11 -50 217 -110 459 -60 242 -110 444 -110 450 0 5 9 19 20 30 19 19 33 20
522 20 l503 0 506 -506 c528 -527 531 -530 574 -494 8 7 15 23 15 37 0 13
-110 300 -245 637 -135 337 -245 618 -245 624 0 15 272 423 295 442 14 12 50
15 163 16 l144 1 134 134 c164 164 164 165 71 257 -53 52 -74 85 -136 211
l-74 148 -139 69 c-77 38 -144 75 -150 82 -6 7 -13 52 -15 99 -1 47 -8 92 -14
99 -6 8 -26 14 -43 14 -27 0 -76 -45 -438 -407 l-408 -408 -741 -2 c-523 -2
-747 0 -762 8 -32 16 -266 249 -283 281 -14 26 -11 34 55 167 39 76 77 141 86
145 9 3 214 6 455 6 l439 0 213 141 c117 78 219 148 226 157 8 11 12 58 12
152 0 160 8 146 -127 214 -99 49 -132 55 -157 30z"/>
<path d="M306 1303 c-20 -69 -276 -1199 -276 -1221 0 -36 17 -52 55 -52 26 0
72 42 373 343 188 188 342 349 342 359 0 22 -451 582 -472 586 -9 2 -19 -5
-22 -15z"/>
<path d="M2078 968 c-21 -17 -328 -790 -328 -826 0 -36 17 -52 55 -52 26 0 72
41 368 338 268 268 337 342 337 363 0 19 -22 47 -84 107 l-84 82 -124 0 c-84
0 -129 -4 -140 -12z"/>
</g>
</svg>
