<?xml version="1.0" standalone="no"?>
<!DOCTYPE svg PUBLIC "-//W3C//DTD SVG 20010904//EN"
 "http://www.w3.org/TR/2001/REC-SVG-20010904/DTD/svg10.dtd">
<svg version="1.0" xmlns="http://www.w3.org/2000/svg"
 width="205.000000pt" height="173.000000pt" viewBox="0 0 205.000000 173.000000"
 preserveAspectRatio="xMidYMid meet">

<g transform="translate(0.000000,173.000000) scale(0.100000,-0.100000)"
fill="#000000" stroke="none">
<path d="M1094 1665 c-14 -25 -38 -81 -52 -123 -21 -65 -25 -96 -26 -202 -1
-105 3 -136 22 -194 60 -180 160 -296 254 -296 14 0 61 23 104 51 69 45 132
79 148 79 10 0 26 -77 26 -127 0 -52 -1 -53 -52 -91 -76 -56 -126 -115 -161
-191 -28 -59 -31 -76 -31 -156 1 -162 57 -308 142 -366 50 -34 162 -39 210
-10 70 44 65 105 -14 190 -81 88 -97 132 -101 276 -3 93 0 136 14 190 16 63
22 72 53 87 61 30 161 58 263 73 134 21 147 29 147 97 0 23 -11 42 -42 73 -35
35 -54 45 -102 55 -75 15 -174 6 -267 -24 l-69 -22 -41 63 c-37 57 -41 68 -36
109 3 31 17 63 48 106 34 49 44 72 47 114 4 49 2 55 -25 81 -39 37 -115 83
-167 101 -29 10 -64 12 -116 9 l-75 -6 -27 50 c-16 27 -32 49 -38 49 -5 0 -21
-20 -36 -45z m65 -66 c19 -34 27 -40 45 -34 11 4 49 9 82 12 65 5 89 -2 199
-65 77 -44 78 -80 7 -191 -67 -102 -68 -152 -6 -246 20 -30 35 -57 33 -59 -2
-2 -24 -14 -49 -26 -25 -13 -71 -40 -102 -61 -80 -55 -106 -53 -171 14 -152
153 -190 427 -92 661 8 20 19 36 23 36 5 0 19 -18 31 -41z m753 -561 c73 -22
117 -107 66 -128 -13 -5 -61 -14 -108 -20 -73 -10 -180 -39 -242 -65 -16 -6
-18 -1 -18 41 -1 27 -7 67 -15 88 -8 22 -12 43 -10 46 4 6 89 30 150 43 42 9
139 7 177 -5z m-379 -368 c-10 -46 -14 -97 -10 -175 5 -142 26 -197 107 -288
62 -70 70 -90 46 -122 -19 -27 -130 -34 -175 -11 -79 41 -135 180 -136 336 0
83 3 102 27 153 24 51 142 186 153 175 2 -2 -3 -32 -12 -68z"/>
<path d="M1342 1488 c-35 -35 10 -81 48 -50 19 16 21 22 11 40 -13 24 -40 29
-59 10z"/>
<path d="M898 666 c-117 -43 -234 -172 -324 -359 l-47 -97 -147 0 c-130 0
-149 2 -163 18 -18 20 -22 49 -9 69 5 7 32 20 60 28 43 13 56 22 69 49 19 41
12 78 -22 112 -45 44 -145 28 -217 -36 -147 -129 -98 -360 88 -416 38 -11 142
-14 526 -14 l479 0 24 24 c17 17 23 31 18 43 -11 30 -59 96 -97 132 l-35 34
29 34 c44 50 71 109 77 169 5 44 1 62 -21 107 -38 79 -88 111 -180 114 -42 2
-86 -2 -108 -11z m182 -41 c112 -57 121 -215 18 -313 l-34 -33 -56 26 c-81 37
-165 43 -221 16 -52 -25 -74 -64 -60 -107 30 -90 187 -97 303 -13 l40 29 49
-48 c59 -59 88 -110 68 -118 -7 -2 -234 -3 -503 -2 -536 3 -514 1 -577 64 -87
87 -72 236 30 308 52 36 125 46 153 21 39 -36 13 -95 -42 -95 -37 0 -88 -48
-88 -84 0 -42 18 -74 49 -91 23 -12 65 -15 188 -15 l158 0 34 80 c68 160 186
311 282 361 73 38 151 43 209 14z m-92 -350 c23 -9 42 -21 42 -25 0 -5 -28
-22 -62 -39 -66 -33 -127 -40 -173 -19 -47 21 -42 77 10 99 29 13 133 4 183
-16z"/>
</g>
</svg>
