<?xml version="1.0" standalone="no"?>
<!DOCTYPE svg PUBLIC "-//W3C//DTD SVG 20010904//EN"
 "http://www.w3.org/TR/2001/REC-SVG-20010904/DTD/svg10.dtd">
<svg version="1.0" xmlns="http://www.w3.org/2000/svg"
 width="112.000000pt" height="122.000000pt" viewBox="0 0 112.000000 122.000000"
 preserveAspectRatio="xMidYMid meet">

<g transform="translate(0.000000,122.000000) scale(0.100000,-0.100000)"
fill="#000000" stroke="none">
<path d="M14 1195 c-11 -29 7 -122 36 -183 40 -84 93 -140 199 -209 2 -1 -13
-21 -33 -44 -67 -79 -78 -127 -80 -359 -2 -192 -4 -209 -28 -276 -14 -39 -31
-81 -37 -93 -12 -21 -11 -21 31 -15 73 11 249 71 333 114 107 55 204 131 296
232 50 54 99 97 143 122 149 87 218 185 225 323 4 88 -10 117 -63 127 -30 6
-42 17 -80 76 -50 77 -100 118 -185 152 -53 21 -71 23 -321 24 -161 1 -281 5
-305 12 -59 17 -124 15 -131 -3z m870 -217 c15 -24 0 -34 -22 -15 -10 10 -29
17 -41 17 -13 0 -19 4 -16 11 10 15 66 6 79 -13z"/>
</g>
</svg>
