<?xml version="1.0" standalone="no"?>
<!DOCTYPE svg PUBLIC "-//W3C//DTD SVG 20010904//EN"
 "http://www.w3.org/TR/2001/REC-SVG-20010904/DTD/svg10.dtd">
<svg version="1.0" xmlns="http://www.w3.org/2000/svg"
 width="320.000000pt" height="372.000000pt" viewBox="0 0 320.000000 372.000000"
 preserveAspectRatio="xMidYMid meet">

<g transform="translate(0.000000,372.000000) scale(0.100000,-0.100000)"
fill="#000000" stroke="none">
<path d="M1495 3688 c-11 -6 -153 -112 -316 -234 -213 -160 -307 -237 -333
-272 -20 -27 -133 -240 -252 -473 -468 -916 -507 -1006 -545 -1266 -45 -303 0
-574 134 -808 153 -268 401 -470 685 -559 177 -55 188 -56 1197 -56 618 0 943
4 968 11 153 42 182 249 48 340 l-35 24 -724 5 -725 5 55 37 c76 50 172 141
230 218 238 313 223 758 -35 1061 -134 157 -184 236 -227 356 l-22 62 33 43
c72 91 101 102 324 123 194 19 267 39 347 99 79 57 108 99 108 156 0 42 -9 61
-83 176 -183 285 -218 332 -285 395 -67 63 -86 74 -226 140 -135 62 -212 172
-223 316 -8 102 -40 134 -98 101z"/>
</g>
</svg>
