<?xml version="1.0" encoding="utf-8"?>
<!-- Generator: Adobe Illustrator 21.0.0, SVG Export Plug-In . SVG Version: 6.00 Build 0)  -->
<svg version="1.1" id="Layer_1" xmlns="http://www.w3.org/2000/svg" xmlns:xlink="http://www.w3.org/1999/xlink" x="0px" y="0px"
	 viewBox="0 0 390 350" style="enable-background:new 0 0 390 350;" xml:space="preserve">
<style type="text/css">
	.st0{fill:url(#SVGID_1_);}
	.st1{fill:url(#SVGID_2_);}
	.st2{fill:url(#SVGID_3_);}
	.st3{fill:none;}
</style>
<g transform="translate(0.000000,350.000000) scale(0.100000,-0.100000)">
	<linearGradient id="SVGID_1_" gradientUnits="userSpaceOnUse" x1="4529.8672" y1="2382.6428" x2="4095.5151" y2="2237.5132">
		<stop  offset="0" style="stop-color:#FF0F6B"/>
		<stop  offset="0.1577" style="stop-color:#FD1070"/>
		<stop  offset="0.3433" style="stop-color:#F7127E"/>
		<stop  offset="0.5429" style="stop-color:#ED1696"/>
		<stop  offset="0.7525" style="stop-color:#DF1BB7"/>
		<stop  offset="0.9677" style="stop-color:#CD21E1"/>
		<stop  offset="1" style="stop-color:#CA22E8"/>
	</linearGradient>
	<path class="st0" d="M1749.1,3470.2c-13.5-12.4-16.6-40.2-16.6-126.8c0-92.8-3.1-113.4-17.6-126.8c-10.4-9.3-80.9-47.4-155.6-84.5
		l-137.9-68H956.8c-355.7,0-468.8-3.1-481.2-12.4c-28-22.7-454.2-595.7-454.2-611.2c0-8.2,67.4-150.5,150.4-314.3l150.4-298.9
		v-227.8c0-147.4,4.1-235,11.4-248.4c6.2-12.4,252-320.5,545.5-685.4C1359.2,70.1,1416.2,3.1,1442.1,3.1c34.2,0,62.2,23.7,62.2,52.6
		c0,11.3-51.9,223.6-114.1,473.1c-62.2,249.4-114.1,457.6-114.1,463.8c0,5.2,9.3,19.6,20.7,30.9c19.7,19.6,34.2,20.6,541.4,20.6
		h521.7l524.8-521.5C3432.3-20.6,3435.4-23.7,3480,13.4c8.3,7.2,15.6,23.7,15.6,38.1c0,13.4-114.1,309.2-254.1,656.5
		s-254.1,636.9-254.1,643.1c0,15.5,282.1,436,305.9,455.5c14.5,12.4,51.9,15.5,169,16.5l149.3,1l139,138.1
		c170.1,169,170.1,170.1,73.6,264.9c-55,53.6-76.7,87.6-141,217.5l-76.7,152.5l-144.2,71.1c-79.9,39.2-149.3,77.3-155.6,84.5
		c-6.2,7.2-13.5,53.6-15.6,102c-1,48.4-8.3,94.8-14.5,102c-6.2,8.2-27,14.4-44.6,14.4c-28,0-78.8-46.4-454.2-419.5l-423.1-420.5
		l-768.5-2.1c-542.4-2.1-774.7,0-790.3,8.2c-33.2,16.5-275.9,256.6-293.5,289.6c-14.5,26.8-11.4,35,57,172.1
		c40.4,78.3,79.9,145.3,89.2,149.4c9.3,3.1,221.9,6.2,471.9,6.2h455.3l220.9,145.3c121.3,80.4,227.1,152.5,234.4,161.8
		c8.3,11.3,12.4,59.8,12.4,156.7c0,164.9,8.3,150.5-131.7,220.6C1809.3,3489.8,1775,3496,1749.1,3470.2z"/>
	<linearGradient id="SVGID_2_" gradientUnits="userSpaceOnUse" x1="4142.2783" y1="1897.9015" x2="3765.4451" y2="1771.9906">
		<stop  offset="0" style="stop-color:#FF0F6B"/>
		<stop  offset="0.1577" style="stop-color:#FD1070"/>
		<stop  offset="0.3433" style="stop-color:#F7127E"/>
		<stop  offset="0.5429" style="stop-color:#ED1696"/>
		<stop  offset="0.7525" style="stop-color:#DF1BB7"/>
		<stop  offset="0.9677" style="stop-color:#CD21E1"/>
		<stop  offset="1" style="stop-color:#CA22E8"/>
	</linearGradient>
	<path class="st1" d="M301.9,1147.4C283.9,1085.6,53.4,74.2,53.4,54.6C53.4,22.3,68.7,8,102.9,8c23.4,0,64.8,37.6,335.9,307
		c169.3,168.3,308,312.4,308,321.3c0,19.7-406.2,520.9-425.1,524.5C313.7,1162.6,304.6,1156.3,301.9,1147.4z"/>
	<linearGradient id="SVGID_3_" gradientUnits="userSpaceOnUse" x1="4843.5791" y1="1442.3" x2="4409.6641" y2="1297.3165">
		<stop  offset="0" style="stop-color:#FF0F6B"/>
		<stop  offset="0.1577" style="stop-color:#FD1070"/>
		<stop  offset="0.3433" style="stop-color:#F7127E"/>
		<stop  offset="0.5429" style="stop-color:#ED1696"/>
		<stop  offset="0.7525" style="stop-color:#DF1BB7"/>
		<stop  offset="0.9677" style="stop-color:#CD21E1"/>
		<stop  offset="1" style="stop-color:#CA22E8"/>
	</linearGradient>
	<path class="st2" d="M2031.2,908C2009.4,890.5,1691,93.8,1691,56.7s17.6-53.6,57-53.6c27,0,74.7,42.3,381.6,348.4
		c277.9,276.2,349.5,352.5,349.5,374.1c0,19.6-22.8,48.4-87.1,110.3l-87.1,84.5h-128.6C2089.3,920.4,2042.6,916.3,2031.2,908z"/>
</g>
</svg>
